<?xml version="1.0" encoding="iso-8859-1"?>
<!-- Generator: Adobe Illustrator 19.0.0, SVG Export Plug-In . SVG Version: 6.00 Build 0)  -->
<svg version="1.1" id="Layer_1" xmlns="http://www.w3.org/2000/svg" xmlns:xlink="http://www.w3.org/1999/xlink" x="0px" y="0px"
	 viewBox="0 0 511.765 511.765" style="enable-background:new 0 0 511.765 511.765;" xml:space="preserve">
<g transform="translate(1 1)">
	<g>
		<path d="M503.419,449.248l-6.517-8.147c3.168-4.028,5.06-8.605,5.664-14.04c0.853-7.68-1.707-14.507-5.973-20.48l-104.96-129.707
			c-8.03-10.221-21.679-12.939-32.937-7.636l-49.736-55.065l41.016-42.103l17.764,17.764c2.56,2.56,5.973,4.267,10.24,4.267
			s7.68-1.707,11.093-4.267l60.587-60.587c2.56-2.56,4.267-5.973,4.267-9.387l5.12-93.867c0-3.413-1.707-7.68-4.267-10.24
			s-6.827-4.267-11.093-4.267l-93.867,5.12c-3.413,0-6.827,1.707-9.387,4.267l-60.587,60.587c-2.56,2.56-4.267,5.973-4.267,10.24
			s1.707,7.68,4.267,10.24l21.507,21.507l-37.426,38.53l-35.944-38.549l14.316-11.248c4.267-2.56,5.973-6.827,6.827-11.093
			c0.853-4.267-0.853-9.387-3.413-12.8l-51.2-65.707c-2.56-4.267-6.827-5.973-11.093-6.827s-9.387,0.853-12.8,3.413L154.325,31.97
			l-11.013-13.656c-10.24-13.653-29.013-16.213-42.667-6.827l-5.12,5.12c-6.827,4.267-11.093,11.093-12.8,19.627
			c-0.853,7.68,0.853,16.213,5.973,23.04l8.445,10.281C69.051,84.173,39.096,94.755,8.486,101.088l-7.68,1.707l-0.853,5.973
			c-4.267,33.28,5.973,68.267,27.307,96.427c21.333,28.16,52.907,46.933,86.187,51.2l5.973,0.853l3.413-8.533
			c14.04-29.161,32.528-55.925,54.372-79.653l39.179,41.863L63.475,368.345c-6.253-4.46-13.666-6.869-21.709-6.138
			c-8.533,0-17.067,4.267-23.04,11.093c-11.947,13.653-11.093,34.987,3.413,47.787l45.227,39.253
			c5.973,5.973,13.653,8.533,22.187,8.533c0.853,0,1.707,0,1.707,0c8.533,0,17.067-4.267,23.04-11.093s9.387-15.36,8.533-24.747
			c0-7.076-2.94-14.146-7.834-19.763l146.331-150.207l45.178,50.324c-6.108,11.491-5.777,26.242,2.352,36.872
			c4.267,5.973,10.24,10.24,17.92,11.947c3.413,0.853,6.827,3.413,6.827,7.68c0,7.68,2.56,14.507,7.68,20.48
			c5.12,5.973,11.093,10.24,18.773,11.947c3.413,0.853,5.973,4.267,5.973,7.68c0,7.68,2.56,14.507,7.68,20.48
			c5.12,5.973,11.093,10.24,18.773,11.947c3.413,0.853,5.973,5.12,5.973,8.533c0,8.533,4.267,17.067,11.093,23.04
			c5.973,5.973,13.653,8.533,22.187,8.533c3.393,0,6.784-0.411,10.016-1.167l7.904,9.7c6.827,8.533,16.213,12.8,26.453,12.8
			c6.827,0,13.653-1.707,20.48-5.973c7.68-5.12,11.947-13.653,13.653-23.04C511.952,465.461,509.392,456.928,503.419,449.248z
			 M351.526,33.674l89.6-5.12l-5.12,89.6l-58.027,58.027l-84.48-84.48L351.526,33.674z M102.352,49.035
			c-2.56-3.413-3.413-6.827-2.56-10.24c0-3.413,2.56-6.827,5.12-8.533l5.973-4.267c2.56-1.707,5.12-2.56,7.68-2.56
			c4.267,0,8.533,1.707,11.947,5.973l10.451,12.863c-9.3,6.848-18.928,13.182-28.829,18.991L102.352,49.035z M109.179,238.475
			c-26.453-5.12-51.2-20.48-69.12-43.52c-17.92-22.187-26.453-50.347-24.747-77.653c10.33-2.238,20.589-4.936,30.724-8.07
			c-0.15,23.395,6.958,45.708,21.329,64.39c14.353,18.659,34.139,31.883,56.817,37.648
			C118.765,220.091,113.75,229.163,109.179,238.475z M134.343,195.706c-6.508-1.31-12.709-3.272-18.541-5.811l18.124-20.541
			c2.56-3.413,2.56-8.533-0.853-11.947c-3.413-2.56-8.533-2.56-11.947,0.853l-20.47,23.199c-6.22-4.313-11.811-9.373-16.654-15.048
			l47.364-39.725c3.413-2.56,4.267-8.533,0.853-11.947c-2.56-3.413-8.533-4.267-11.947-0.853l-45.983,38.567
			c-2.494-4.464-4.597-9.164-6.278-14.055l24.955-18.538c3.413-2.56,4.267-8.533,1.707-11.947c-2.56-3.413-8.533-4.267-11.947-1.707
			l-18.852,14.005c-0.645-5.489-0.788-11.127-0.384-16.863c33.681-12.317,65.561-29.655,93.476-51.755l23.893-18.773l51.2,66.56
			l-15.294,12.017l-0.066-0.07l-8.533,6.827c-12.8,9.387-24.747,20.48-36.693,32.427l-5.973,5.973l0.248,0.265
			C154.334,169.036,143.828,182.025,134.343,195.706z M189.392,157.408c8.514-8.514,17.027-16.177,24.693-22.992
			c0.019-0.015,0.037-0.03,0.056-0.046l37.545,40.105l-17.131,17.743l-6.782,6.982L189.392,157.408z M313.979,136.075l23.893,23.893
			l-234.667,240.64l-25.6-22.187L313.979,136.075z M103.206,445.835c-3.413,3.413-7.68,5.973-11.947,5.973
			c-4.267,0-8.533-0.853-11.947-4.267l-45.227-39.253c-6.827-5.973-7.68-17.067-1.707-23.893c3.413-3.413,7.68-5.973,11.947-5.973
			h0.853c4.267,0,7.68,0.853,11.093,4.267l25.84,22.427l20.87,18.435c2.644,3.099,4.49,6.717,4.49,10.338
			C107.472,438.154,106.619,442.421,103.206,445.835z M297.314,226.127l46.532,52.454l-26.453,21.333l-44.073-49.158
			L297.314,226.127z M413.819,450.101c0-11.947-7.68-21.333-18.773-23.893c-3.413-0.853-6.827-3.413-9.387-5.973
			c-1.707-2.56-3.413-6.827-3.413-10.24c0-11.093-7.68-21.333-18.773-23.893c-3.413-0.853-6.827-3.413-9.387-5.973
			c-1.707-2.56-3.413-6.827-3.413-10.24c0-11.093-7.68-20.48-19.627-23.893c-4.267-0.853-6.827-2.56-9.387-5.973
			c-3.482-4.642-3.799-11.649-1.235-17.538l3.795-3.795c0.853-0.853,1.707-1.707,2.56-2.56l39.441-32.342
			c1.299-0.622,2.534-0.938,4.079-0.938c2.56,0,5.973,0.853,7.68,3.413l103.253,131.413c1.707,2.56,2.56,5.12,2.56,7.68
			s-0.853,5.12-3.413,6.827l-37.547,29.867c-6.827,5.12-17.067,5.12-23.04,0C416.379,458.634,413.819,454.368,413.819,450.101z
			 M492.326,472.288c-0.853,5.12-2.56,9.387-6.827,11.947c-6.827,5.12-17.067,3.413-23.04-3.413l-5.396-6.937l26.593-21.154
			l5.256,6.758C491.472,462.901,493.179,468.021,492.326,472.288z"/>
	</g>
</g>
<g>
</g>
<g>
</g>
<g>
</g>
<g>
</g>
<g>
</g>
<g>
</g>
<g>
</g>
<g>
</g>
<g>
</g>
<g>
</g>
<g>
</g>
<g>
</g>
<g>
</g>
<g>
</g>
<g>
</g>
</svg>
